<svg xmlns="http://www.w3.org/2000/svg" viewBox="0 0 800 500"><defs><linearGradient id="g" x2="1" y2="1"><stop stop-color="#6f856b"/><stop offset="1" stop-color="#303b30"/></linearGradient><radialGradient id="v"><stop stop-color="#000" stop-opacity="0"/><stop offset="1" stop-color="#000" stop-opacity=".65"/></radialGradient></defs><rect width="800" height="500" fill="#303b30"/><path d="M380 -100H750L470 600H100Z" fill="url(#g)" opacity=".5"/><path d="M-100 0L-250 500" stroke="#6f856b" stroke-opacity=".2" stroke-width="1"/><path d="M-45 0L-195 500" stroke="#6f856b" stroke-opacity=".2" stroke-width="1"/><path d="M10 0L-140 500" stroke="#6f856b" stroke-opacity=".2" stroke-width="1"/><path d="M65 0L-85 500" stroke="#6f856b" stroke-opacity=".2" stroke-width="1"/><path d="M120 0L-30 500" stroke="#6f856b" stroke-opacity=".2" stroke-width="1"/><path d="M175 0L25 500" stroke="#6f856b" stroke-opacity=".2" stroke-width="1"/><path d="M230 0L80 500" stroke="#6f856b" stroke-opacity=".2" stroke-width="1"/><path d="M285 0L135 500" stroke="#6f856b" stroke-opacity=".2" stroke-width="1"/><path d="M340 0L190 500" stroke="#6f856b" stroke-opacity=".2" stroke-width="1"/><path d="M395 0L245 500" stroke="#6f856b" stroke-opacity=".2" stroke-width="1"/><path d="M450 0L300 500" stroke="#6f856b" stroke-opacity=".2" stroke-width="1"/><path d="M505 0L355 500" stroke="#6f856b" stroke-opacity=".2" stroke-width="1"/><path d="M560 0L410 500" stroke="#6f856b" stroke-opacity=".2" stroke-width="1"/><path d="M615 0L465 500" stroke="#6f856b" stroke-opacity=".2" stroke-width="1"/><path d="M670 0L520 500" stroke="#6f856b" stroke-opacity=".2" stroke-width="1"/><path d="M725 0L575 500" stroke="#6f856b" stroke-opacity=".2" stroke-width="1"/><path d="M780 0L630 500" stroke="#6f856b" stroke-opacity=".2" stroke-width="1"/><path d="M835 0L685 500" stroke="#6f856b" stroke-opacity=".2" stroke-width="1"/><path d="M890 0L740 500" stroke="#6f856b" stroke-opacity=".2" stroke-width="1"/><path d="M945 0L795 500" stroke="#6f856b" stroke-opacity=".2" stroke-width="1"/><path d="M1000 0L850 500" stroke="#6f856b" stroke-opacity=".2" stroke-width="1"/><path d="M1055 0L905 500" stroke="#6f856b" stroke-opacity=".2" stroke-width="1"/><circle cx="170" cy="250" r="70" fill="none" stroke="#6f856b" stroke-opacity=".28" stroke-width="1"/><circle cx="240" cy="270" r="74" fill="none" stroke="#6f856b" stroke-opacity=".28" stroke-width="1"/><circle cx="310" cy="250" r="78" fill="none" stroke="#6f856b" stroke-opacity=".28" stroke-width="1"/><circle cx="380" cy="270" r="82" fill="none" stroke="#6f856b" stroke-opacity=".28" stroke-width="1"/><circle cx="450" cy="250" r="86" fill="none" stroke="#6f856b" stroke-opacity=".28" stroke-width="1"/><circle cx="520" cy="270" r="90" fill="none" stroke="#6f856b" stroke-opacity=".28" stroke-width="1"/><circle cx="590" cy="250" r="94" fill="none" stroke="#6f856b" stroke-opacity=".28" stroke-width="1"/><rect x="70" y="65" width="660" height="370" rx="6" fill="none" stroke="#fff" stroke-opacity=".17"/><path d="M590 130h80v80M670 130L530 270" fill="none" stroke="#c7ff97" stroke-width="2" opacity=".6"/><rect width="800" height="500" fill="url(#v)"/></svg>